<svg width="556" height="359" viewBox="0 0 556 359" fill="none" xmlns="http://www.w3.org/2000/svg">
<g filter="url(#filter0_d)">
<path d="M342.361 210.678C347.906 198.033 363.379 189.966 376.921 192.66L474.509 212.071C488.051 214.765 494.534 227.199 488.988 239.844L453.846 319.976C448.3 332.621 432.827 340.688 419.285 337.994L321.697 318.583C308.156 315.889 301.673 303.455 307.218 290.81L342.361 210.678Z" fill="#4995AD"/>
</g>
<path d="M344.702 281.76L347.76 284.716L424.023 221.433L420.965 218.477L344.702 281.76Z" fill="#E535AB"/>
<path d="M435.548 293.563L346.313 275.813L344.419 280.131L433.655 297.881L435.548 293.563Z" fill="#E535AB"/>
<path d="M347.014 278.59L381.096 311.531L385.048 308.252L350.967 275.31L347.014 278.59Z" fill="#E535AB"/>
<path d="M413.292 223.588L447.374 256.53L451.326 253.25L417.245 220.308L413.292 223.588Z" fill="#E535AB"/>
<path d="M365.625 236.185L366.297 240.385L421.485 225.2L420.812 221L365.625 236.185Z" fill="#E535AB"/>
<path d="M414.216 219.483L427.188 300.516L432.14 299.153L419.168 218.12L414.216 219.483Z" fill="#E535AB"/>
<path d="M373.266 234.591L368.641 233.671L347.535 281.797L352.16 282.717L373.266 234.591Z" fill="#E535AB"/>
<path d="M450.828 250.019L446.203 249.099L425.097 297.226L429.722 298.146L450.828 250.019Z" fill="#E535AB"/>
<path d="M380.523 305.879L381.11 309.547L429.109 296.341L428.521 292.672L380.523 305.879Z" fill="#E535AB"/>
<path d="M435.235 300.769C430.655 304.582 424.043 304.879 420.486 301.456C416.928 298.033 417.782 292.15 422.362 288.338C426.941 284.525 433.554 284.229 437.111 287.651C440.685 291.106 439.843 296.963 435.235 300.769Z" fill="#E535AB"/>
<path d="M375.974 243.474C371.394 247.286 364.781 247.583 361.224 244.16C357.667 240.737 358.52 234.854 363.1 231.042C367.68 227.23 374.292 226.933 377.849 230.355C381.395 233.804 380.553 239.661 375.974 243.474Z" fill="#E535AB"/>
<path d="M340.79 281.983C340.021 277.107 344.039 271.882 349.798 270.284C355.546 268.712 360.83 271.375 361.627 276.257C362.396 281.133 358.378 286.358 352.619 287.956C346.843 289.523 341.559 286.859 340.79 281.983Z" fill="#E535AB"/>
<path d="M436.764 255.566C435.995 250.689 440.013 245.464 445.772 243.866C451.52 242.294 456.804 244.957 457.601 249.839C458.37 254.716 454.352 259.941 448.593 261.539C442.845 263.111 437.533 260.442 436.764 255.566Z" fill="#E535AB"/>
<path d="M376.843 316.844C371.466 315.775 368.9 310.852 371.102 305.831C373.304 300.81 379.43 297.617 384.807 298.686C390.184 299.756 392.75 304.679 390.548 309.699C388.358 314.694 382.22 317.914 376.843 316.844Z" fill="#E535AB"/>
<path d="M413.556 233.131C408.179 232.061 405.613 227.138 407.815 222.118C410.016 217.097 416.142 213.903 421.519 214.973C426.896 216.042 429.463 220.965 427.261 225.986C425.059 231.006 418.933 234.2 413.556 233.131Z" fill="#E535AB"/>
<g filter="url(#filter1_d)">
<path d="M37.5523 168.966C43.0976 156.321 58.5708 148.254 72.1126 150.948L299.164 196.111C312.706 198.805 319.189 211.239 313.643 223.884L299.586 255.937C294.041 268.581 278.568 276.648 265.026 273.954L37.9743 228.791C24.4325 226.097 17.95 213.663 23.4953 201.019L37.5523 168.966Z" fill="#4995AD"/>
</g>
<path d="M83.1061 187.533C85.8336 172.929 80.4111 167.819 79.7627 164.839C79.5278 163.537 79.3974 162.206 79.3725 160.855C78.7348 162.074 78.2183 162.819 76.6802 163.533C73.5923 164.966 60.7797 170.365 53.0296 186.033C45.8041 200.641 54.1856 212.203 55.4078 213.468C56.4114 214.296 58.1901 214.035 59.1692 213.654C66.8096 211.018 79.4271 202.45 83.1127 187.534" fill="#10AA50"/>
<path d="M60.186 205.875C58.2725 209.466 57.1186 211.544 55.4124 213.474C55.4124 213.474 54.4064 217.055 53.1553 220.811L54.4454 221.068C55.8907 218.535 57.4899 216.053 59.2347 213.636C57.9012 212.536 58.8443 209.093 60.186 205.875Z" fill="#B8C4C2"/>
<path d="M59.2318 213.637C57.8635 212.573 58.8705 209.067 60.1884 205.875C62.9037 200.718 65.3307 195.486 67.4593 190.2C68.5794 187.426 78.6944 164.685 79.3875 161.199C79.4182 162.433 79.5439 163.648 79.7637 164.837C80.4112 167.819 85.8358 172.93 83.1061 187.533C79.438 202.425 66.8764 210.975 59.2318 213.637Z" fill="#12924F"/>
<path d="M283.884 252.847C283.162 252.703 282.543 252.363 282.105 251.869C281.668 251.376 281.431 250.751 281.426 250.073C281.42 249.395 281.645 248.694 282.073 248.059C282.501 247.424 283.112 246.883 283.83 246.503C284.548 246.124 285.341 245.923 286.109 245.926C286.876 245.93 287.585 246.137 288.145 246.522C288.705 246.907 289.092 247.453 289.256 248.091C289.421 248.729 289.356 249.43 289.071 250.107C288.884 250.564 288.6 251 288.236 251.388C287.871 251.775 287.434 252.107 286.949 252.363C286.465 252.619 285.944 252.794 285.417 252.877C284.89 252.96 284.369 252.95 283.884 252.847ZM286.75 246.313C286.092 246.177 285.366 246.227 284.666 246.457C283.966 246.687 283.323 247.086 282.818 247.603C282.312 248.12 281.968 248.733 281.828 249.363C281.688 249.993 281.759 250.613 282.031 251.143C282.304 251.674 282.766 252.091 283.359 252.343C283.953 252.594 284.65 252.668 285.363 252.556C286.077 252.444 286.774 252.15 287.367 251.712C287.96 251.273 288.422 250.711 288.694 250.094C288.882 249.686 288.981 249.263 288.985 248.85C288.989 248.437 288.898 248.043 288.716 247.69C288.535 247.337 288.268 247.034 287.93 246.797C287.592 246.56 287.191 246.396 286.75 246.313ZM285.32 251.764L285.209 249.673L284.447 249.521L283.612 251.425L283.058 251.315L284.957 246.983L286.325 247.255C287.343 247.458 287.586 247.954 287.236 248.753C286.958 249.388 286.464 249.72 285.814 249.723L285.93 251.879L285.32 251.764ZM284.666 249.078L285.467 249.237C286.117 249.367 286.455 249.209 286.697 248.657C286.94 248.104 286.786 247.869 286.054 247.724L285.323 247.578L284.666 249.078Z" fill="#21313C"/>
<path d="M230.71 238.879C231.377 239.817 233.225 240.516 234.972 240.864C237.237 241.314 239.628 241.364 242.6 239.966C245.631 238.53 248.409 235.964 250.418 231.383C252.349 226.981 252.122 223.052 249.359 220.228C247.817 218.596 245.337 217.58 242.269 216.97C241.385 216.794 240.456 216.657 239.843 216.772C239.563 216.886 239.317 217.074 239.146 217.306C238.709 218.072 236.091 224.041 234.544 227.57C232.957 231.188 230.744 236.233 230.566 236.87C230.385 237.404 230.264 238.38 230.707 238.887L230.71 238.879ZM231.915 212.78C232.717 212.94 235.709 213.676 237.127 213.958C239.778 214.485 241.666 214.72 246.621 215.705C250.773 216.531 253.809 218.272 255.429 220.772C257.38 223.815 257.507 227.534 255.692 231.674C253.112 237.556 248.75 240.384 245.022 241.726C241.271 243.16 237.039 243.549 231.718 242.491C228.886 241.927 224.062 240.874 220.023 240.023L219.939 240.006C219.902 239.62 221.035 238.368 221.382 238.398C222.537 238.503 222.847 238.519 223.441 238.424C224.442 238.267 224.822 237.899 225.547 236.48C226.873 233.806 228.241 230.573 229.847 226.912C230.993 224.298 233.275 219.209 233.89 217.577C234.338 216.2 233.881 215.73 232.761 215.222C231.961 214.874 231.134 214.568 230.282 214.303C230.304 214.023 231.547 212.985 231.896 212.776" fill="#21313C"/>
<path d="M272.132 223.184C271.925 223.19 271.497 223.58 271.402 223.797C270.665 225.357 268.823 229.442 267.581 232.274C267.57 232.33 267.577 232.386 267.602 232.433C267.627 232.48 267.669 232.517 267.722 232.539C268.315 232.704 269.806 233.05 271.08 233.304C272.874 233.661 274.008 233.649 274.689 233.499C276.505 233.102 277.873 231.715 278.598 230.061C280.261 226.27 278.059 224.269 273.86 223.433C273.295 223.314 272.715 223.23 272.123 223.182L272.132 223.184ZM275.193 242.742C276.875 238.908 274.808 236.129 269.286 235.03C269.052 234.984 267.317 234.591 266.861 234.595C266.701 234.61 266.522 234.669 266.483 234.757C265.279 237.503 263.301 241.893 262.68 243.664C262.45 244.423 262.559 245.582 263.13 246.028C263.714 246.57 265.374 246.994 266.554 247.229C269.81 247.877 273.435 246.752 275.193 242.742ZM264.542 219.353C264.968 219.438 266.166 219.817 269.376 220.456C272.395 221.056 274.887 221.458 277.808 222.039C281.441 222.762 285.907 224.977 283.691 230.031C282.605 232.506 279.836 234.144 276.961 234.615C276.801 234.63 276.763 234.717 276.885 234.788C280.016 236.308 282.202 238.925 280.52 242.759C278.877 246.507 275.344 248.363 271.061 249.121C268.45 249.597 265.571 249.355 262.795 248.802C260.672 248.38 255.072 247.042 251.894 246.446C251.62 246.25 252.866 244.979 253.244 244.819C253.978 244.942 254.743 244.98 255.522 244.931C256.767 244.896 257.051 244.583 257.881 243.041C258.568 241.709 260.689 236.872 262.199 233.43C264.263 228.723 265.706 225.554 266.346 223.975C266.834 222.747 266.534 222.259 265.732 221.864C265.083 221.591 263.96 221.226 263.074 220.909C262.934 220.643 264.234 219.48 264.544 219.353" fill="#21313C"/>
<path d="M83.3206 212.952C83.3214 212.649 83.4046 212.338 83.5633 212.043C83.6424 211.836 83.7812 211.643 83.9647 211.484C84.6111 211.523 85.2663 211.528 85.9271 211.5C86.8471 211.472 87.3471 211.109 87.8317 210.125C88.999 207.803 90.9409 203.397 92.251 200.289L92.2908 200.198C92.4373 199.864 92.6363 199.41 92.3347 199.003C91.7577 198.393 91.067 197.878 90.2842 197.474C89.9368 197.286 89.8031 197.048 89.9137 196.823C90.0242 196.599 90.3914 196.38 90.9477 196.388C92.3721 196.53 96.3051 196.444 97.9781 196.118C98.0457 196.323 98.0158 196.558 97.8945 196.774C97.8348 196.91 97.7494 197.05 97.6688 197.195C97.4373 197.625 97.1751 198.113 96.958 198.608C96.9403 198.67 96.9419 198.732 96.9627 198.787C96.9834 198.842 97.0224 198.888 97.0754 198.92C97.1284 198.952 97.1932 198.968 97.2625 198.967C97.3318 198.966 97.4029 198.947 97.4677 198.914C101.007 197.485 103.715 197.263 104.946 197.508C106.971 197.911 108.152 199.128 108.558 201.232C108.566 201.282 108.59 201.328 108.626 201.364C108.663 201.399 108.711 201.425 108.766 201.437C108.817 201.446 108.872 201.444 108.926 201.431C108.98 201.418 109.033 201.393 109.078 201.36C112.306 200.105 115.204 199.549 116.839 199.874C120.7 200.642 121.824 203.801 119.842 208.32C119.273 209.62 118.537 211.265 117.849 212.799C117.247 214.146 116.681 215.408 116.298 216.283C116.207 216.489 116.252 217.144 116.657 217.352C117.11 217.722 117.867 218.017 118.826 218.387L118.866 218.395C118.829 218.67 118.223 219.646 117.976 219.821C117.72 219.77 117.376 219.679 116.943 219.571C116.157 219.374 115.08 219.104 113.801 218.849C111.234 218.339 109.873 218.117 108.558 217.941C108.592 217.622 108.982 216.651 109.187 216.472C109.752 216.5 110.324 216.498 110.9 216.465C111.828 216.376 112.216 216.076 112.711 215.074C113.047 214.358 115.977 208.045 116.374 206.487C116.816 204.877 116.358 202.799 113.604 202.251C112.581 202.048 110.756 202.117 108.695 202.918C108.552 203.002 108.439 203.124 108.376 203.261L108.363 203.292C108.192 204.142 107.776 205.09 107.147 206.524C106.785 207.349 106.408 208.209 106.02 209.067C105.242 210.814 104.509 212.462 103.993 213.716C103.62 214.566 104.081 214.88 104.453 215.131C104.672 215.228 104.843 215.309 105.018 215.389C105.349 215.547 105.696 215.71 106.231 215.908C106.157 216.287 105.984 216.662 105.727 217.001C105.645 217.131 105.532 217.248 105.398 217.342C103.991 217.012 102.544 216.682 100.43 216.261C99.789 216.134 98.7333 215.951 97.8 215.79C97.043 215.659 96.328 215.537 95.925 215.46C95.9214 215.198 95.9869 214.929 96.1166 214.672C96.2013 214.423 96.3604 214.188 96.5757 213.992L97.1859 214.008C97.7169 214.024 98.1762 214.039 98.6199 214.024C99.4084 213.957 99.8268 213.654 100.242 212.833C101.229 210.922 103.786 205.355 104.105 203.898C104.59 201.555 103.722 200.144 101.522 199.707C100.234 199.45 98.3522 199.706 96.6144 200.372C96.4355 200.463 96.2734 200.583 96.1384 200.724C96.0034 200.865 95.8984 201.024 95.8299 201.191C95.5378 201.858 95.1904 202.65 94.8177 203.5C93.5875 206.305 92.0362 209.793 91.4469 211.317C91.2867 211.792 91.221 212.38 92.0667 212.768C92.2478 212.865 92.5777 212.988 92.9605 213.134C93.1806 213.218 93.4218 213.309 93.6692 213.407C93.5376 213.918 93.2726 214.415 92.8965 214.857C92.4857 214.775 91.9907 214.65 91.4219 214.512C90.5546 214.299 89.47 214.034 88.2219 213.786C86.7463 213.492 85.6992 213.334 84.859 213.207C84.2937 213.121 83.8053 213.047 83.3251 212.953" fill="#21313C"/>
<path d="M137.839 206.078C137.048 205.904 136.174 205.954 135.326 206.222C133.279 206.826 131.629 208.519 130.431 211.25C128.19 216.361 129.366 220.476 133.291 221.257C134.33 221.498 135.505 221.363 136.584 220.878C138.193 220.2 139.656 218.451 140.809 215.823C143.017 210.788 141.822 206.871 137.835 206.077L137.839 206.078ZM131.271 222.916C124.18 221.506 123.786 216.146 125.778 211.602C127.171 208.428 129.648 206.223 133.145 205.046C135.552 204.318 138.022 204.148 140.299 204.554C145.709 205.63 147.896 210.014 145.613 215.218C144.063 218.753 141.329 221.246 137.708 222.423C135.992 222.934 133.237 223.307 131.271 222.916Z" fill="#21313C"/>
<path d="M210.028 220.438C209.237 220.262 208.36 220.312 207.511 220.581C205.464 221.185 203.814 222.877 202.617 225.608C200.375 230.719 201.551 234.835 205.476 235.616C206.517 235.859 207.696 235.724 208.778 235.239C210.386 234.561 211.848 232.811 213 230.183C215.208 225.148 214.016 221.231 210.028 220.438ZM203.465 237.277C196.374 235.866 195.98 230.506 197.971 225.965C199.365 222.786 201.842 220.583 205.341 219.407C207.747 218.678 210.217 218.508 212.493 218.914C217.903 219.99 220.088 224.376 217.808 229.576C216.256 233.116 213.523 235.606 209.903 236.781C208.186 237.294 205.431 237.668 203.465 237.277Z" fill="#21313C"/>
<path d="M186.23 215.516C184.045 215.081 181.925 216.411 180.831 218.904C179.738 221.398 179.655 224.604 183.077 225.285C183.664 225.402 184.836 225.37 185.601 224.933C186.696 224.408 187.845 223.103 188.498 221.613C189.925 218.361 189.079 216.082 186.241 215.518L186.23 215.516ZM178.41 232.672C177.796 232.543 177.125 232.564 176.462 232.733C174.28 233.42 173.026 234.292 172.501 235.49C172.009 236.612 172.083 237.598 172.738 238.59C173.532 239.793 174.966 240.587 177.119 241.015C181.358 241.859 184.192 240.108 185.116 238C185.76 236.531 185.403 235.39 184.024 234.511C182.961 233.835 180.974 233.184 178.416 232.675L178.41 232.672ZM174.266 242.838C171.722 242.332 170.108 241.466 169.036 240.029C167.993 238.628 168.023 236.862 168.517 235.736C168.851 235.014 169.453 234.377 170.211 233.943C170.859 233.56 172.272 232.884 175.315 231.832C175.359 231.825 175.401 231.807 175.436 231.78C175.472 231.753 175.5 231.719 175.516 231.681C175.535 231.64 175.538 231.596 175.526 231.558C175.513 231.519 175.485 231.488 175.445 231.47C173.797 230.382 173.715 229.107 173.807 228.453C173.817 228.43 173.833 228.395 173.83 228.352C173.881 228.098 173.93 227.856 174.389 227.69C174.743 227.563 175.287 227.406 175.868 227.242C176.679 227.031 177.482 226.772 178.272 226.466C178.318 226.44 178.359 226.406 178.392 226.366C178.424 226.326 178.447 226.282 178.458 226.237C178.47 226.191 178.47 226.146 178.458 226.105C178.446 226.063 178.424 226.026 178.391 225.997C175.895 224.513 175.317 222.216 176.663 219.149C177.073 218.191 177.726 217.294 178.565 216.535C179.404 215.775 180.404 215.175 181.482 214.786C183.023 214.158 186.399 213.706 188.292 214.082L188.403 214.104C190.33 214.535 191.26 215.135 192.55 215.961C193.287 216.425 194.143 216.743 195.074 216.898C196.684 217.218 197.598 216.882 198.447 216.448C198.435 216.717 198.372 216.991 198.259 217.258C198.018 217.9 197.558 218.491 196.948 218.944C196.432 219.305 195.521 219.46 194.812 219.319C194.739 219.305 194.668 219.291 194.595 219.265C194.233 219.166 193.888 219.036 193.566 218.874L193.359 218.898C193.267 218.965 193.266 219.059 193.264 219.18C193.266 219.204 193.265 219.228 193.261 219.253C193.149 219.829 192.992 220.405 192.791 220.976C191.384 224.183 189.418 225.31 187.499 226.055C185.648 226.765 183.7 227.039 181.869 226.845C181.831 226.838 181.641 226.816 181.284 226.776C181.055 226.751 180.757 226.718 180.715 226.71L180.673 226.702C180.319 226.721 179.326 226.925 179.025 227.612C178.776 228.181 178.841 228.963 180.581 229.448L181.709 229.756C184.009 230.381 186.883 231.162 188.082 231.878C188.872 232.365 189.421 233.09 189.649 233.952C189.878 234.814 189.776 235.767 189.356 236.677C188.095 239.554 184.716 241.825 180.322 242.749C178.253 243.176 176.185 243.197 174.27 242.808" fill="#21313C"/>
<path d="M168.842 228.295C167.861 227.959 167.161 227.676 166.439 227.106C166.338 226.901 166.317 226.663 166.379 226.422C166.876 225.052 168.596 221.131 169.721 218.565C170.639 216.471 171.064 214.571 170.689 213.072C170.206 211.364 168.984 210.174 166.907 209.761C165.067 209.395 162.098 210.083 159.362 211.293C159.295 211.326 158.862 211.541 159.057 211.113C159.252 210.685 159.704 209.829 159.992 209.281C160.077 209.137 160.125 208.983 160.133 208.832C160.141 208.681 160.108 208.537 160.038 208.411C158.441 208.766 154.362 208.851 152.93 208.703C151.848 208.685 151.198 209.536 152.133 210.061L152.149 210.064C152.909 210.455 153.58 210.954 154.141 211.546C154.431 211.935 154.194 212.361 154.041 212.71C152.807 215.638 150.839 220.126 149.627 222.538C149.16 223.488 148.723 223.78 147.89 223.805L147.971 223.796C147.336 223.816 146.708 223.802 146.09 223.754C145.758 223.923 145.204 225.188 145.325 225.497C145.798 225.591 148.254 225.938 150.242 226.333C152.977 226.877 154.336 227.289 155.045 227.43C155.464 227.181 156.072 226.024 155.999 225.725C155.358 225.567 154.747 225.35 154.177 225.078C153.499 224.754 153.463 224.366 153.76 223.575C154.566 221.506 156.476 217.15 157.776 214.186C158.138 213.361 158.545 213.014 158.926 212.845C160.213 212.249 162.002 212.037 163.369 212.309C164.695 212.573 165.406 213.141 165.84 213.794C166.336 214.577 166.433 215.554 166.112 216.526C165.576 218.213 164.072 221.522 162.814 224.392C162.125 225.961 161.813 226.327 161.123 226.379C160.784 226.452 159.97 226.434 159.035 226.342C158.638 226.548 158.196 227.785 158.271 228.085C159.497 228.329 160.979 228.483 163.046 228.894C165.642 229.41 167.237 229.869 167.898 230C168.314 229.751 168.909 228.631 168.852 228.295" fill="#21313C"/>
<g filter="url(#filter2_d)">
<path d="M379.544 101.578C385.089 88.9333 400.562 80.8665 414.104 83.5601L499.432 100.533C512.974 103.227 519.457 115.661 513.911 128.305L498.85 162.648C493.305 175.292 477.832 183.359 464.29 180.666L378.962 163.693C365.42 160.999 358.937 148.565 364.483 135.92L379.544 101.578Z" fill="#4995AD"/>
</g>
<path d="M475.782 164.188C471.83 164.354 469.99 163.078 469.269 159.813L463.439 138.2L462.546 135.191L436.683 153.399C433.671 155.609 431.207 156.342 428.102 154.73L461.128 131.623L452.337 103.069C455.987 103.106 458.174 103.892 458.965 107.219L465.217 129.17L488.236 113.154C491.254 110.945 493.711 110.366 496.676 111.992L484.807 120.211L468.83 131.112C466.955 132.348 466.68 133.394 467.181 135.048L475.782 164.188ZM389.887 116.957L395.197 109.119C406.987 93.8618 429.155 90.9568 438.02 103.597C443.185 111.021 441.46 119.727 436.988 128.974L393.331 120.29C385.315 136.941 393.381 149.558 411.595 147.562C417.984 146.86 423.133 143.286 427.103 138.322C429.103 135.837 430.67 135.698 432.918 136.969C428.698 143.325 423.301 148.262 415.5 150.472C403.841 153.785 391.175 149.444 387.283 140.844C384.915 135.832 385.501 130.195 387.204 124.381C387.492 123.422 387.638 122.482 387.847 121.549C388.535 120.021 389.214 118.491 389.886 116.96L389.887 116.957ZM394.972 116.745L434.424 124.593C439.488 112.407 435.443 102.232 424.782 100.03C413.082 97.6067 400.963 104.345 394.972 116.745Z" fill="black"/>
<g filter="url(#filter3_d)">
<path d="M116.517 35.1057C124.123 17.7645 145.343 6.70141 163.915 10.3955L309.981 39.4501C328.553 43.1442 337.443 60.1966 329.838 77.5378L305.368 133.336C297.763 150.678 276.542 161.741 257.971 158.046L111.904 128.992C93.332 125.298 84.4419 108.245 92.0469 90.9042L116.517 35.1057Z" fill="#4995AD"/>
</g>
<path d="M189.408 135.028C188.815 134.91 188.291 134.648 187.894 134.265L183.795 130.197C183.171 129.614 183.631 129.544 183.936 129.511C185.168 129.373 185.421 129.337 186.839 128.956C186.988 128.915 187.136 128.969 187.23 129.062L190.377 132.192C190.494 132.298 190.707 132.34 190.88 132.292L210.92 126.78C211.105 126.731 211.274 126.587 211.347 126.42L219.006 108.955C219.083 108.781 219.053 108.606 218.938 108.489L206.564 96.5372C206.45 96.424 206.251 96.3844 206.065 96.4379L186.037 101.944C185.844 101.996 185.672 102.14 185.599 102.306L177.94 119.771C177.867 119.938 177.895 120.116 178.014 120.227L181.403 123.504C183.319 125.108 185.373 124.075 185.958 122.742L193.518 105.504C193.626 105.258 193.916 105.11 194.18 105.162L196.233 105.571C196.488 105.621 196.616 105.853 196.508 106.099L188.945 123.344C187.629 126.345 185.121 127.72 182.074 127.114C181.136 126.927 180.398 126.78 178.752 125.423L175.504 122.289C174.702 121.512 174.518 120.322 175.015 119.189L182.674 101.724C183.172 100.588 184.287 99.6562 185.584 99.3045L205.642 93.7918C206.906 93.4542 208.269 93.7254 209.05 94.4697L221.42 106.437C222.219 107.21 222.409 108.397 221.911 109.533L214.251 126.998C213.755 128.131 212.638 129.058 211.342 129.418L191.304 134.935C190.662 135.112 190.01 135.139 189.41 135.019" fill="#689F63"/>
<path d="M199.692 123.989C192.6 122.578 192.446 119.242 193.564 116.693C193.671 116.45 193.965 116.299 194.225 116.351L196.318 116.767C196.55 116.813 196.676 117.009 196.618 117.229C196.061 119.284 196.562 120.476 200.851 121.329C204.267 122.009 206.035 121.577 206.777 119.886C207.204 118.912 207.108 118.106 202.013 116.566C197.754 115.274 195.412 113.815 196.866 110.5C198.205 107.446 201.761 106.177 206.383 107.096C211.572 108.128 213.406 110.322 212.146 114.001C212.103 114.128 212.002 114.24 211.872 114.313C211.745 114.382 211.596 114.41 211.466 114.385L209.36 113.966C209.141 113.922 209.014 113.74 209.055 113.534C209.467 111.338 208.536 110.424 205.205 109.762C201.476 109.02 200.51 110.146 200.112 111.055C199.628 112.158 199.998 112.581 204.757 114.203C209.468 115.812 211.451 117.154 210.018 120.423C208.572 123.719 204.797 125.024 199.661 124.002L199.692 123.989ZM227.527 109.407L228.07 109.515C228.517 109.604 228.73 109.329 228.805 109.159C229.001 108.712 228.672 108.646 228.489 108.61L227.93 108.499L227.527 109.407ZM227.493 107.844L228.698 108.083C229.112 108.166 229.924 108.327 229.545 109.191C229.281 109.793 228.812 109.836 228.531 109.862C229.001 109.989 228.904 110.291 228.786 110.72C228.704 110.988 228.559 111.45 228.59 111.62L227.847 111.473C227.893 111.317 228.145 110.461 228.165 110.416C228.198 110.22 228.169 110.116 227.921 110.066L227.309 109.945L226.734 111.255L226.056 111.121L227.493 107.844ZM225.331 109.184C224.736 110.541 225.426 111.873 226.867 112.159C228.319 112.448 229.984 111.56 230.569 110.226C231.165 108.866 230.45 107.55 229.009 107.264C227.589 106.981 225.93 107.808 225.328 109.18L225.331 109.184ZM231.068 110.334C230.364 111.94 228.381 112.971 226.665 112.63C224.961 112.291 224.109 110.713 224.82 109.091C225.544 107.439 227.552 106.463 229.223 106.795C230.907 107.13 231.787 108.685 231.064 110.333" fill="#689F63"/>
<path fill-rule="evenodd" clip-rule="evenodd" d="M169.184 56.7064C169.489 56.0093 169.377 55.2908 168.884 54.816L155.748 42.1651C155.528 41.9482 155.239 41.8002 154.915 41.7233L154.737 41.688C154.403 41.6338 154.041 41.6525 153.676 41.753L132.443 47.5674C131.65 47.7886 130.97 48.3494 130.664 49.0465L119.796 73.9217C119.645 74.2665 119.694 74.6264 119.944 74.8615C120.181 75.1063 120.579 75.1853 120.975 75.0665L133.587 71.6356C134.389 71.4055 135.061 70.8504 135.363 70.1601L140.458 58.5427C140.762 57.8494 141.437 57.2874 142.231 57.0706L147.606 55.5967C148.005 55.4867 148.398 55.4708 148.759 55.5427C149.114 55.6134 149.44 55.7711 149.677 56.0082L152.999 59.2113C153.491 59.684 153.606 60.4029 153.302 61.0962L148.207 72.7128C147.905 73.4023 148.024 74.1182 148.51 74.6019L156.326 82.092C156.568 82.3339 156.967 82.4132 157.365 82.2986C157.754 82.1908 158.095 81.9085 158.246 81.5637L169.184 56.7064ZM244.598 85.7844C244.522 85.9575 244.353 86.0981 244.155 86.1517L236.859 88.1547C236.661 88.2088 236.463 88.1694 236.341 88.0516L231.831 83.7003C231.706 83.582 231.679 83.4024 231.755 83.2296L234.545 76.8665C234.621 76.693 234.789 76.5525 234.985 76.4968L242.28 74.4879C242.481 74.4331 242.68 74.4726 242.804 74.592L247.312 78.9486C247.436 79.068 247.463 79.2473 247.387 79.4208L244.598 85.7844ZM266.862 38.9718C266.613 38.7403 266.219 38.6669 265.825 38.7767C265.432 38.8881 265.097 39.1674 264.946 39.5122L254.146 64.1374C254.04 64.3799 253.804 64.576 253.526 64.6525C253.25 64.7293 252.972 64.674 252.8 64.508L249.51 61.3366C249.021 60.8628 248.231 60.7057 247.436 60.924L226.183 66.7686C225.389 66.9856 224.712 67.547 224.409 68.2365L216.282 86.7698C215.978 87.4631 216.095 88.1784 216.584 88.6547L229.71 101.345C230.2 101.817 230.991 101.974 231.786 101.758L253.044 95.9029C253.838 95.6818 254.514 95.1244 254.818 94.4312L275.075 48.2418C275.383 47.5386 275.257 46.8104 274.751 46.336L266.862 38.9718ZM306.303 90.9578C307.093 90.7386 307.767 90.1773 308.069 89.4878L310.039 84.9962C310.342 84.3051 310.228 83.5892 309.741 83.1142L296.72 70.4574C296.228 69.9805 295.437 69.8232 294.639 70.0434L273.39 75.8876C272.592 76.1078 271.919 76.666 271.615 77.3593L263.49 95.8851C263.185 96.5822 263.304 97.3061 263.798 97.7792L276.889 110.265C277.37 110.727 278.14 110.884 278.921 110.681L291.602 107.375C292.001 107.269 292.349 106.988 292.502 106.64C292.655 106.291 292.599 105.926 292.349 105.691L279.121 92.9846C278.871 92.7496 278.814 92.388 278.965 92.0432L281.514 86.2317C281.666 85.8846 282.001 85.6036 282.401 85.4954L289.052 83.6674C289.449 83.5569 289.843 83.6352 290.087 83.8732L294.2 87.8423C294.445 88.0766 294.503 88.4382 294.352 88.7829L292.348 93.3518C292.197 93.6966 292.255 94.0582 292.499 94.2962C292.744 94.5304 293.142 94.6095 293.539 94.499L306.303 90.9578Z" fill="#333333"/>
<path fill-rule="evenodd" clip-rule="evenodd" d="M288.308 86.436C288.459 86.3932 288.611 86.4235 288.705 86.5151L291.225 88.9481C291.319 89.0393 291.34 89.177 291.282 89.3096L289.722 92.867C289.664 92.9996 289.535 93.1074 289.382 93.1495L285.304 94.2702C285.152 94.3127 284.999 94.2824 284.907 94.1911L282.389 91.7586C282.293 91.6669 282.27 91.5288 282.328 91.3962L283.888 87.8388C283.946 87.7062 284.073 87.598 284.228 87.5563L288.308 86.436Z" fill="#689F63"/>
<path d="M180.269 57.8568C179.475 57.7016 178.57 58.1764 178.248 58.9174L170.021 77.8471C169.699 78.5881 170.082 79.3146 170.876 79.4698L205.251 86.1885C206.045 86.3437 206.95 85.8688 207.272 85.1278L215.498 66.1982C215.82 65.4572 215.438 64.7307 214.644 64.5755L180.269 57.8568Z" fill="url(#paint0_linear)"/>
<path d="M170.749 77.6203C170.1 78.2084 170.027 79.0717 170.586 79.5484L184.87 91.7265C185.429 92.2032 186.409 92.1128 187.058 91.5247L215.167 66.0655C215.816 65.4773 215.889 64.6141 215.33 64.1374L201.046 51.9593C200.487 51.4826 199.507 51.5729 198.858 52.161L170.749 77.6203Z" fill="url(#paint1_linear)"/>
<path d="M201.335 52.5266C201.219 51.8064 200.438 51.412 199.588 51.6457L180.089 57.0107C179.24 57.2443 178.645 58.0175 178.76 58.7376L183.946 91.1329C184.061 91.8531 184.843 92.2474 185.692 92.0138L205.192 86.6488C206.041 86.4152 206.636 85.642 206.52 84.9218L201.335 52.5266Z" fill="url(#paint2_linear)"/>
<defs>
<filter id="filter0_d" x="305.235" y="192.141" width="195.736" height="166.371" filterUnits="userSpaceOnUse" color-interpolation-filters="sRGB">
<feFlood flood-opacity="0" result="BackgroundImageFix"/>
<feColorMatrix in="SourceAlpha" type="matrix" values="0 0 0 0 0 0 0 0 0 0 0 0 0 0 0 0 0 0 127 0"/>
<feOffset dx="5" dy="15"/>
<feGaussianBlur stdDeviation="2.5"/>
<feColorMatrix type="matrix" values="0 0 0 0 0.2 0 0 0 0 0 0 0 0 0 0.18 0 0 0 0.76 0"/>
<feBlend mode="normal" in2="BackgroundImageFix" result="effect1_dropShadow"/>
<feBlend mode="normal" in="SourceGraphic" in2="effect1_dropShadow" result="shape"/>
</filter>
<filter id="filter1_d" x="21.5122" y="150.429" width="304.114" height="144.044" filterUnits="userSpaceOnUse" color-interpolation-filters="sRGB">
<feFlood flood-opacity="0" result="BackgroundImageFix"/>
<feColorMatrix in="SourceAlpha" type="matrix" values="0 0 0 0 0 0 0 0 0 0 0 0 0 0 0 0 0 0 127 0"/>
<feOffset dx="5" dy="15"/>
<feGaussianBlur stdDeviation="2.5"/>
<feColorMatrix type="matrix" values="0 0 0 0 0.2 0 0 0 0 0 0 0 0 0 0.18 0 0 0 0.76 0"/>
<feBlend mode="normal" in2="BackgroundImageFix" result="effect1_dropShadow"/>
<feBlend mode="normal" in="SourceGraphic" in2="effect1_dropShadow" result="shape"/>
</filter>
<filter id="filter2_d" x="362.5" y="83.0415" width="163.395" height="118.143" filterUnits="userSpaceOnUse" color-interpolation-filters="sRGB">
<feFlood flood-opacity="0" result="BackgroundImageFix"/>
<feColorMatrix in="SourceAlpha" type="matrix" values="0 0 0 0 0 0 0 0 0 0 0 0 0 0 0 0 0 0 127 0"/>
<feOffset dx="5" dy="15"/>
<feGaussianBlur stdDeviation="2.5"/>
<feColorMatrix type="matrix" values="0 0 0 0 0.2 0 0 0 0 0 0 0 0 0 0.18 0 0 0 0.76 0"/>
<feBlend mode="normal" in2="BackgroundImageFix" result="effect1_dropShadow"/>
<feBlend mode="normal" in="SourceGraphic" in2="effect1_dropShadow" result="shape"/>
</filter>
<filter id="filter3_d" x="89.3271" y="9.68439" width="256.945" height="176.502" filterUnits="userSpaceOnUse" color-interpolation-filters="sRGB">
<feFlood flood-opacity="0" result="BackgroundImageFix"/>
<feColorMatrix in="SourceAlpha" type="matrix" values="0 0 0 0 0 0 0 0 0 0 0 0 0 0 0 0 0 0 127 0"/>
<feOffset dx="6.85714" dy="20.5714"/>
<feGaussianBlur stdDeviation="3.42857"/>
<feColorMatrix type="matrix" values="0 0 0 0 0.2 0 0 0 0 0 0 0 0 0 0.18 0 0 0 0.76 0"/>
<feBlend mode="normal" in2="BackgroundImageFix" result="effect1_dropShadow"/>
<feBlend mode="normal" in="SourceGraphic" in2="effect1_dropShadow" result="shape"/>
</filter>
<linearGradient id="paint0_linear" x1="174.147" y1="68.3853" x2="208.136" y2="83.1565" gradientUnits="userSpaceOnUse">
<stop offset="0.16" stop-color="#6BBF47"/>
<stop offset="0.38" stop-color="#79B461"/>
<stop offset="0.47" stop-color="#75AC64"/>
<stop offset="0.7" stop-color="#659E5A"/>
<stop offset="0.9" stop-color="#3E863D"/>
</linearGradient>
<linearGradient id="paint1_linear" x1="177.739" y1="85.6285" x2="204.177" y2="54.6183" gradientUnits="userSpaceOnUse">
<stop offset="0.16" stop-color="#3E863D"/>
<stop offset="0.38" stop-color="#79B461"/>
<stop offset="0.47" stop-color="#75AC64"/>
<stop offset="0.7" stop-color="#75AC64"/>
<stop offset="0.9" stop-color="#6BBF47"/>
</linearGradient>
<linearGradient id="paint2_linear" x1="189.84" y1="54.3402" x2="199.186" y2="88.3081" gradientUnits="userSpaceOnUse">
<stop offset="0.16" stop-color="#A1CC8E"/>
<stop offset="0.38" stop-color="#79B461"/>
<stop offset="0.47" stop-color="#75AC64"/>
<stop offset="0.7" stop-color="#659E5A"/>
<stop offset="0.9" stop-color="#3E863D"/>
</linearGradient>
</defs>
</svg>
