<svg width="688" height="491" viewBox="0 0 688 491" fill="none" xmlns="http://www.w3.org/2000/svg">
<g filter="url(#filter0_d)">
<path d="M174.002 396.155C166.113 386.016 169.439 374.065 181.433 369.461L267.864 336.283C279.858 331.679 295.977 336.166 303.866 346.305L353.867 410.556C361.757 420.695 358.43 432.646 346.437 437.25L260.006 470.428C248.012 475.032 231.893 470.545 224.003 460.407L174.002 396.155Z" fill="#4995AD"/>
</g>
<path d="M304.905 387.867L279.062 397.787L283.918 404.027L301.636 397.225C306.338 407.58 304.284 418.498 296.01 425.73L225.627 406.14C221.557 393.517 228.037 380.897 242.438 375.369C253.513 371.118 267.128 371.974 278.986 376.742L281.37 370.56C267.421 364.965 251.239 363.883 237.58 369.127C218.382 376.496 211.124 394.278 218.964 411.129L299.749 433.616C314.553 423.069 317.532 404.093 304.903 387.864L304.905 387.867ZM223.929 419.358C230.73 428.097 241.346 434.962 254.199 438.54C267.051 442.118 280.06 441.582 290.025 437.757L223.929 419.358Z" fill="white"/>
<path d="M230.294 359.764C201.868 370.676 193.91 399.266 212.61 423.296C231.31 447.326 269.869 458.059 298.295 447.147C326.722 436.235 334.68 407.646 315.98 383.616C297.28 359.586 258.721 348.852 230.294 359.764ZM254.441 438.855C241.588 435.277 230.728 428.097 224.172 419.673L290.638 437.927C280.057 441.581 267.293 442.431 254.44 438.853L254.441 438.855ZM299.141 433.452L218.964 411.129C211.124 394.278 218.382 376.496 237.58 369.127C251.239 363.883 267.422 364.966 281.366 370.558L278.982 376.74C267.126 371.971 253.514 371.119 242.439 375.37C228.041 380.897 221.93 393.375 225.628 406.141L296.015 425.733C304.294 418.501 306.342 407.583 301.641 397.229L283.923 404.03L279.064 397.786L304.906 387.866C317.535 404.095 314.562 423.07 299.143 433.446L299.141 433.452Z" fill="#663399"/>
<g filter="url(#filter1_d)">
<path d="M453.253 273.702C445.363 263.563 448.69 251.612 460.683 247.008L578.386 201.826C590.38 197.222 606.499 201.709 614.388 211.848L635.817 239.384C643.707 249.523 640.381 261.474 628.387 266.078L510.684 311.26C498.691 315.864 482.572 311.377 474.682 301.238L453.253 273.702Z" fill="#4995AD"/>
</g>
<path d="M504.308 255.26L528.595 245.937L529.859 247.561L507.798 256.029L517.31 268.251L538.055 260.288L539.318 261.912L518.574 269.875L529.016 283.294L551.329 274.729L552.593 276.353L528.054 285.773L504.308 255.26ZM530.771 245.102L533.351 244.111L555.229 253.141L556.474 235.235L559.107 212.088L557.793 253.988L583.457 264.505L580.776 265.535L557.423 255.961L556.236 274.955L553.605 275.965L554.96 255.075L530.771 245.102ZM561.937 235.247L560.673 233.623L588.35 222.999L589.614 224.623L576.863 229.518L599.345 258.407L597.118 259.261L574.637 230.372L561.937 235.247Z" fill="black"/>
<path d="M473.925 266.923L476.708 265.855L552.675 299.433L522.968 287.725L478.048 268.337L499.896 296.581L497.67 297.436L473.925 266.923Z" fill="black"/>
<path d="M610.226 251.484C610.686 251.308 610.791 250.882 610.493 250.499C610.195 250.116 609.628 249.948 609.168 250.125C608.713 250.3 608.603 250.727 608.901 251.11C609.199 251.493 609.771 251.659 610.226 251.484ZM611.022 248.857C611.902 249.988 613.447 250.355 614.86 249.812C616.365 249.234 616.682 248.123 615.653 246.801L612.029 242.144L610.816 242.609L614.436 247.262C615.008 247.996 614.874 248.557 614.1 248.854C613.407 249.12 612.652 248.936 612.213 248.399L611.022 248.857ZM617.36 246.347C618.362 247.49 620.112 247.796 621.845 247.131C623.697 246.42 624.241 245.186 623.262 243.927C622.492 242.937 621.405 242.644 619.557 242.944L618.558 243.097C617.384 243.287 616.763 243.176 616.397 242.706C615.936 242.113 616.273 241.48 617.231 241.112C618.141 240.763 619.064 240.9 619.65 241.463L620.83 241.01C619.897 239.929 618.131 239.594 616.545 240.203C614.839 240.857 614.309 242.074 615.221 243.246C615.974 244.213 617.065 244.54 618.695 244.276L619.862 244.095C621.056 243.903 621.745 244.03 622.136 244.531C622.59 245.115 622.205 245.814 621.231 246.188C620.186 246.589 619.151 246.471 618.562 245.885L617.36 246.347Z" fill="black"/>
<g filter="url(#filter2_d)">
<path d="M285.056 298.213C277.166 288.074 280.493 276.123 292.486 271.519L378.918 238.341C390.911 233.737 407.03 238.224 414.92 248.363L464.921 312.615C472.811 322.753 469.484 334.705 457.49 339.309L371.059 372.486C359.065 377.09 342.947 372.604 335.057 362.465L285.056 298.213Z" fill="#4995AD"/>
</g>
<path d="M430.491 284.836C425.772 278.772 412.319 276.474 395.774 278.197C389.719 265.112 380.96 256.214 372.385 255.581C370.399 255.423 368.46 255.731 366.628 256.434L369.866 260.594C370.881 260.205 371.828 260.059 372.759 260.114C376.893 260.417 382.507 265.458 387.038 272.974C388.16 274.821 389.2 276.82 390.18 278.891C385.158 279.656 379.898 280.779 374.584 282.237C368.919 279.929 363.39 277.981 358.144 276.433C360.94 268.019 365.283 262.329 369.873 260.567L366.636 256.407C360.567 258.737 355.467 265.443 352.37 274.87C339.43 271.648 328.669 271.078 322.599 273.408L325.837 277.568C330.405 275.815 339.576 276.292 351.141 279.146C350.185 283.074 349.52 287.376 349.271 291.954C344.631 294.316 340.446 296.819 336.831 299.394C334.872 297.723 333.089 296.058 331.474 294.424C324.89 287.696 321.859 281.664 323.691 279.046C324.092 278.456 324.836 277.976 325.852 277.587L322.614 273.427C320.76 274.138 319.344 275.118 318.439 276.386C314.59 281.789 320.531 291.744 332.936 302.343C321.996 311.194 317.515 320.353 322.219 326.397C326.937 332.461 340.391 334.759 356.935 333.036C362.991 346.121 371.749 355.019 380.325 355.652C382.311 355.81 384.25 355.502 386.103 354.791C392.172 352.461 397.272 345.754 400.369 336.328C413.309 339.55 424.071 340.119 430.14 337.79C431.994 337.078 433.409 336.098 434.314 334.83C438.164 329.428 432.223 319.473 419.818 308.873C430.728 300.057 435.195 290.88 430.491 284.836ZM392.073 283.422C393.129 286.142 394.045 289.013 394.828 291.935C392.762 290.79 390.652 289.662 388.453 288.567C386.276 287.465 384.062 286.424 381.878 285.422C385.316 284.611 388.717 283.935 392.073 283.422ZM397.427 307.171C397.666 310.35 397.758 313.416 397.654 316.339C394.555 317.844 391.324 319.254 387.969 320.541C384.637 321.821 381.203 322.969 377.762 323.999C374.203 322.482 370.571 320.799 366.905 318.96C363.325 317.16 359.872 315.263 356.536 313.297C355.959 310.272 355.558 307.179 355.312 304.1C355.073 300.92 354.98 297.855 355.084 294.931C358.184 293.427 361.415 292.017 364.769 290.729C368.102 289.45 371.536 288.301 374.976 287.271C378.536 288.788 382.167 290.471 385.834 292.31C389.413 294.111 392.867 296.007 396.203 297.973C396.758 301.007 397.18 304.092 397.427 307.171ZM402.668 302.009C405.805 304.052 408.766 306.162 411.492 308.265C409.065 309.972 406.412 311.645 403.561 313.248C403.524 311.396 403.459 309.507 403.298 307.607C403.152 305.724 402.925 303.849 402.668 302.009ZM395.781 330.505C392.334 329.502 388.729 328.294 385 326.891C387.044 326.203 389.118 325.479 391.17 324.691C393.245 323.895 395.268 323.07 397.204 322.206C396.916 325.151 396.417 327.935 395.781 330.505ZM370.81 325.82C367.371 326.631 363.97 327.307 360.615 327.819C359.558 325.099 358.643 322.228 357.859 319.307C359.926 320.452 362.036 321.58 364.235 322.674C366.433 323.769 368.625 324.817 370.81 325.82ZM356.907 280.736C360.353 281.739 363.959 282.948 367.688 284.351C365.644 285.039 363.57 285.762 361.517 286.55C359.443 287.346 357.419 288.172 355.484 289.036C355.771 286.091 356.27 283.307 356.907 280.736ZM349.127 297.994C349.163 299.845 349.229 301.734 349.39 303.635C349.536 305.517 349.748 307.374 350.005 309.214C346.868 307.171 343.907 305.061 341.181 302.958C343.622 301.27 346.276 299.597 349.127 297.994ZM347.331 329.018C337.326 329.2 329.398 327.446 327.118 324.517C324.839 321.588 327.004 315.935 332.638 310.138C333.999 308.719 335.595 307.307 337.285 305.907C341.389 309.081 346.006 312.251 351.092 315.362C352.082 320.022 353.396 324.436 354.991 328.549C352.356 328.809 349.788 328.971 347.331 329.018ZM379.95 351.119C375.817 350.816 370.203 345.775 365.672 338.259C364.55 336.412 363.51 334.413 362.529 332.342C367.552 331.577 372.812 330.455 378.126 328.996C383.791 331.304 389.319 333.252 394.565 334.8C391.77 343.215 387.427 348.904 382.836 350.666C381.829 351.028 380.859 351.182 379.95 351.119ZM421.236 316.809C427.819 323.537 430.851 329.57 429.019 332.187C428.618 332.777 427.873 333.257 426.858 333.646C422.29 335.4 413.119 334.922 401.554 332.069C402.51 328.14 403.175 323.839 403.425 319.261C408.064 316.898 412.249 314.395 415.864 311.821C417.837 313.51 419.643 315.167 421.236 316.809ZM420.049 301.104C418.688 302.523 417.093 303.935 415.402 305.335C411.299 302.161 406.682 298.99 401.595 295.879C400.606 291.219 399.292 286.805 397.697 282.693C400.331 282.433 402.9 282.271 405.379 282.215C415.384 282.034 423.312 283.787 425.591 286.716C427.849 289.654 425.684 295.306 420.049 301.104Z" fill="#61DAFB"/>
<path d="M382.967 314.151C388.538 312.013 390.083 306.462 386.418 301.753C382.754 297.045 375.268 294.961 369.698 297.099C364.128 299.237 362.583 304.788 366.247 309.497C369.911 314.205 377.397 316.289 382.967 314.151Z" fill="#61DAFB"/>
<g filter="url(#filter3_d)">
<path d="M48.2864 234.607C40.3965 224.468 43.7232 212.517 55.7169 207.913L142.148 174.735C154.142 170.131 170.26 174.618 178.15 184.757L256.151 284.99C264.041 295.128 260.715 307.08 248.721 311.684L162.29 344.861C150.296 349.465 134.177 344.979 126.288 334.84L48.2864 234.607Z" fill="#4995AD"/>
</g>
<path d="M68.4938 217.314L74.6064 214.967L78.5926 220.089L84.2269 217.927L80.2407 212.804L86.3534 210.458L98.4169 225.96L92.3042 228.306L88.2831 223.139L82.7019 225.281L86.7231 230.449L80.5573 232.815L68.4938 217.314ZM98.4539 212.524L93.0588 214.595L89.0377 209.428L105.967 202.929L109.988 208.096L104.567 210.177L112.609 220.512L106.496 222.858L98.4539 212.524ZM108.651 201.899L115.056 199.44L123.238 203.389L122.923 196.42L129.328 193.961L141.392 209.463L135.279 211.81L129.3 204.126L129.357 211.34L120.742 207.411L126.721 215.095L120.715 217.4L108.651 201.899ZM132.358 192.798L138.471 190.452L146.548 200.831L155.212 197.506L159.198 202.628L144.421 208.3" fill="black"/>
<path d="M150.628 323.212L77.0991 243.363L173.52 206.351L229.473 292.888L197.156 317.314" fill="#E44D26"/>
<path d="M191.729 310.207L130.624 231.687L170.038 216.557L217.764 290.438" fill="#F16529"/>
<path d="M108.247 253.494L138.544 241.864L146.482 252.064L129.419 258.613L138.665 268.632L154.611 262.51L162.531 272.688L135.529 283.053L108.247 253.494ZM140.047 287.971L152.166 283.319L159.363 291.148L175.242 289.021L183.529 299.67L154.214 303.337" fill="#EBEBEB"/>
<path d="M168.736 230.274L138.491 241.884L146.429 252.084L175.557 240.903L168.736 230.274ZM182.597 251.768L154.558 262.531L162.496 272.731L177.379 267.018L186.285 280.813L175.189 289.041L183.441 299.645L203.647 284.361" fill="white"/>
<g filter="url(#filter4_d)">
<path d="M354.68 147.034C346.79 136.895 350.117 124.944 362.111 120.34L448.542 87.1621C460.535 82.5582 476.654 87.045 484.544 97.1837L534.545 161.436C542.435 171.574 539.108 183.525 527.114 188.129L440.683 221.307C428.69 225.911 412.571 221.424 404.681 211.286L354.68 147.034Z" fill="#4995AD"/>
</g>
<path d="M463.343 95.3087L364.316 133.322L429.46 217.033L528.486 179.02L463.343 95.3087Z" fill="#F7DF1E"/>
<path d="M481.731 173.186C485.868 175.174 490.038 176.201 494.628 174.439C498.483 172.959 499.679 170.385 497.927 168.134C495.828 165.436 492.554 165.452 487.089 165.512L484.106 165.562C475.509 165.721 468.69 164.404 463.706 157.999C459.115 152.1 460.938 145.567 469.248 142.377C475.165 140.106 480.773 140.214 487.384 143.595L483.199 150.31C479.721 148.504 477.259 148.212 474.587 149.237C471.861 150.284 471.271 152.408 472.757 154.318C474.593 156.678 477.066 156.969 482.196 156.898L485.178 156.848C495.315 156.679 502.053 157.887 507.165 164.457C512.676 171.539 509.114 177.945 500.276 181.338C491.634 184.655 483.341 183.317 477.058 179.803L481.731 173.186ZM449.389 186.486C452.557 188.118 455.329 189.461 458.526 188.233C461.584 187.06 462.725 185.308 459.666 181.377L438.851 154.629L448.156 151.057L469.054 177.911C475.392 186.056 472.628 191.932 464.382 195.097C456.931 197.957 450.08 196.354 444.831 193.271L449.389 186.486Z" fill="black"/>
<g filter="url(#filter5_d)">
<path d="M158.483 135.564C150.593 125.425 153.919 113.474 165.913 108.87L252.344 75.6922C264.338 71.0882 280.457 75.575 288.347 85.7137L366.348 185.947C374.238 196.085 370.911 208.037 358.917 212.64L272.486 245.818C260.492 250.422 244.374 245.935 236.484 235.797L158.483 135.564Z" fill="#4995AD"/>
</g>
<path d="M288.093 104.839L344.338 191.851L311.884 216.39L265.072 222.295L191.166 142.046L288.093 104.839Z" fill="#264DE4"/>
<path d="M332.635 189.428L284.571 115.072L244.952 130.281L306.411 209.257L332.635 189.428Z" fill="#2965F1"/>
<path d="M240.849 172.141L249.919 181.981L277.073 171.557L269.091 161.3L240.849 172.141Z" fill="#EBEBEB"/>
<path d="M252.934 140.538L252.892 140.554L222.507 152.218L231.593 162.052L260.917 150.796L252.934 140.538Z" fill="#EBEBEB"/>
<path d="M298.127 198.612L289.822 187.94L289.778 187.972L273.864 190.075L266.633 182.226L260.067 184.747L254.452 186.902L268.686 202.355L298.081 198.647L298.127 198.612Z" fill="#EBEBEB"/>
<path d="M196.29 110.561L210.987 104.919L215.03 110.114L206.479 113.397L210.522 118.592L219.073 115.31L223.116 120.505L208.419 126.147L196.29 110.561Z" fill="black"/>
<path d="M213.926 103.791L228.623 98.1493L232.138 102.667L223.588 105.949L224.291 106.853L232.842 103.571L240.928 113.961L226.231 119.603L222.539 114.859L231.09 111.577L230.387 110.673L221.836 113.956L213.926 103.791Z" fill="black"/>
<path d="M231.562 97.021L246.259 91.3794L249.775 95.8971L241.224 99.1795L241.927 100.083L250.478 96.8007L258.564 107.191L243.867 112.833L240.176 108.089L248.726 104.807L248.023 103.903L239.472 107.186L231.562 97.021Z" fill="black"/>
<path d="M291.973 165.838L300.917 179.682L289.787 187.965L298.091 198.636L318.432 183.259L317.266 181.456L299.102 153.357L297.255 150.489L283.289 128.886L252.892 140.554L260.875 150.812L277.973 144.249L285.043 155.176L269.049 161.316L277.031 171.574L291.973 165.838Z" fill="white"/>
<defs>
<filter id="filter0_d" x="169.722" y="334.474" width="197.73" height="156.372" filterUnits="userSpaceOnUse" color-interpolation-filters="sRGB">
<feFlood flood-opacity="0" result="BackgroundImageFix"/>
<feColorMatrix in="SourceAlpha" type="matrix" values="0 0 0 0 0 0 0 0 0 0 0 0 0 0 0 0 0 0 127 0"/>
<feOffset dx="4.65228" dy="13.9568"/>
<feGaussianBlur stdDeviation="2.32614"/>
<feColorMatrix type="matrix" values="0 0 0 0 0.2 0 0 0 0 0 0 0 0 0 0.18 0 0 0 0.76 0"/>
<feBlend mode="normal" in2="BackgroundImageFix" result="effect1_dropShadow"/>
<feBlend mode="normal" in="SourceGraphic" in2="effect1_dropShadow" result="shape"/>
</filter>
<filter id="filter1_d" x="448.972" y="200.017" width="200.43" height="131.661" filterUnits="userSpaceOnUse" color-interpolation-filters="sRGB">
<feFlood flood-opacity="0" result="BackgroundImageFix"/>
<feColorMatrix in="SourceAlpha" type="matrix" values="0 0 0 0 0 0 0 0 0 0 0 0 0 0 0 0 0 0 127 0"/>
<feOffset dx="4.65228" dy="13.9568"/>
<feGaussianBlur stdDeviation="2.32614"/>
<feColorMatrix type="matrix" values="0 0 0 0 0.2 0 0 0 0 0 0 0 0 0 0.18 0 0 0 0.76 0"/>
<feBlend mode="normal" in2="BackgroundImageFix" result="effect1_dropShadow"/>
<feBlend mode="normal" in="SourceGraphic" in2="effect1_dropShadow" result="shape"/>
</filter>
<filter id="filter2_d" x="280.775" y="236.532" width="197.73" height="156.372" filterUnits="userSpaceOnUse" color-interpolation-filters="sRGB">
<feFlood flood-opacity="0" result="BackgroundImageFix"/>
<feColorMatrix in="SourceAlpha" type="matrix" values="0 0 0 0 0 0 0 0 0 0 0 0 0 0 0 0 0 0 127 0"/>
<feOffset dx="4.65228" dy="13.9568"/>
<feGaussianBlur stdDeviation="2.32614"/>
<feColorMatrix type="matrix" values="0 0 0 0 0.2 0 0 0 0 0 0 0 0 0 0.18 0 0 0 0.76 0"/>
<feBlend mode="normal" in2="BackgroundImageFix" result="effect1_dropShadow"/>
<feBlend mode="normal" in="SourceGraphic" in2="effect1_dropShadow" result="shape"/>
</filter>
<filter id="filter3_d" x="44.0059" y="172.926" width="225.731" height="192.353" filterUnits="userSpaceOnUse" color-interpolation-filters="sRGB">
<feFlood flood-opacity="0" result="BackgroundImageFix"/>
<feColorMatrix in="SourceAlpha" type="matrix" values="0 0 0 0 0 0 0 0 0 0 0 0 0 0 0 0 0 0 127 0"/>
<feOffset dx="4.65228" dy="13.9568"/>
<feGaussianBlur stdDeviation="2.32614"/>
<feColorMatrix type="matrix" values="0 0 0 0 0.2 0 0 0 0 0 0 0 0 0 0.18 0 0 0 0.76 0"/>
<feBlend mode="normal" in2="BackgroundImageFix" result="effect1_dropShadow"/>
<feBlend mode="normal" in="SourceGraphic" in2="effect1_dropShadow" result="shape"/>
</filter>
<filter id="filter4_d" x="350.4" y="85.3531" width="197.73" height="156.372" filterUnits="userSpaceOnUse" color-interpolation-filters="sRGB">
<feFlood flood-opacity="0" result="BackgroundImageFix"/>
<feColorMatrix in="SourceAlpha" type="matrix" values="0 0 0 0 0 0 0 0 0 0 0 0 0 0 0 0 0 0 127 0"/>
<feOffset dx="4.65228" dy="13.9568"/>
<feGaussianBlur stdDeviation="2.32614"/>
<feColorMatrix type="matrix" values="0 0 0 0 0.2 0 0 0 0 0 0 0 0 0 0.18 0 0 0 0.76 0"/>
<feBlend mode="normal" in2="BackgroundImageFix" result="effect1_dropShadow"/>
<feBlend mode="normal" in="SourceGraphic" in2="effect1_dropShadow" result="shape"/>
</filter>
<filter id="filter5_d" x="154.202" y="73.8832" width="225.731" height="208.396" filterUnits="userSpaceOnUse" color-interpolation-filters="sRGB">
<feFlood flood-opacity="0" result="BackgroundImageFix"/>
<feColorMatrix in="SourceAlpha" type="matrix" values="0 0 0 0 0 0 0 0 0 0 0 0 0 0 0 0 0 0 127 0"/>
<feOffset dx="4.65228" dy="30"/>
<feGaussianBlur stdDeviation="2.32614"/>
<feColorMatrix type="matrix" values="0 0 0 0 0.2 0 0 0 0 0 0 0 0 0 0.18 0 0 0 0.76 0"/>
<feBlend mode="normal" in2="BackgroundImageFix" result="effect1_dropShadow"/>
<feBlend mode="normal" in="SourceGraphic" in2="effect1_dropShadow" result="shape"/>
</filter>
</defs>
</svg>
